<svg width="1254" height="1254" viewBox="0 0 1254 1254" fill="none" xmlns="http://www.w3.org/2000/svg">
  <rect width="1254" height="1254" fill="#F5F0E7"/>
  <rect x="96" y="96" width="1062" height="1062" rx="44" fill="#0B0D0C"/>
  <circle cx="932" cy="287" r="238" fill="#D68B38" fill-opacity="0.18"/>
  <circle cx="346" cy="878" r="288" fill="#748C7D" fill-opacity="0.16"/>
  <path d="M178 318H1076" stroke="white" stroke-opacity="0.08"/>
  <path d="M178 936H1076" stroke="white" stroke-opacity="0.08"/>
  <rect x="190" y="184" width="874" height="660" rx="26" fill="#F8F4EC"/>
  <rect x="190" y="184" width="874" height="70" rx="26" fill="white"/>
  <circle cx="238" cy="219" r="10" fill="#FF665E"/>
  <circle cx="270" cy="219" r="10" fill="#F2BE4B"/>
  <circle cx="302" cy="219" r="10" fill="#51BD73"/>
  <rect x="249" y="344" width="276" height="32" rx="16" fill="#0B0D0C" fill-opacity="0.14"/>
  <rect x="249" y="402" width="530" height="64" rx="14" fill="#0B0D0C"/>
  <rect x="249" y="504" width="618" height="18" rx="9" fill="#0B0D0C" fill-opacity="0.16"/>
  <rect x="249" y="544" width="456" height="18" rx="9" fill="#0B0D0C" fill-opacity="0.12"/>
  <rect x="249" y="650" width="170" height="104" rx="18" fill="#D68B38" fill-opacity="0.18"/>
  <rect x="449" y="650" width="170" height="104" rx="18" fill="#0B0D0C" fill-opacity="0.08"/>
  <rect x="649" y="650" width="170" height="104" rx="18" fill="#0B0D0C" fill-opacity="0.08"/>
  <rect x="860" y="326" width="132" height="324" rx="20" fill="#0B0D0C" fill-opacity="0.08"/>
  <text x="178" y="997" fill="white" fill-opacity="0.34" font-family="Inter, Arial, sans-serif" font-size="22" letter-spacing="8">PORTFOLIO SYSTEM</text>
  <text x="178" y="1068" fill="white" font-family="Georgia, serif" font-size="84" font-weight="700">Personal Site</text>
  <text x="178" y="1118" fill="white" fill-opacity="0.42" font-family="Inter, Arial, sans-serif" font-size="24">AI collaboration / design judgement / continuous expression</text>
</svg>
