<svg width="1600" height="1200" viewBox="0 0 1600 1200" fill="none" xmlns="http://www.w3.org/2000/svg">
  <rect width="1600" height="1200" fill="#080A0B"/>
  <rect width="1600" height="1200" fill="url(#pageGlow)"/>
  <g opacity="0.16">
    <path d="M160 220H1440" stroke="white" stroke-opacity="0.16"/>
    <path d="M160 980H1440" stroke="white" stroke-opacity="0.16"/>
    <path d="M320 120V1080" stroke="white" stroke-opacity="0.08"/>
    <path d="M1280 120V1080" stroke="white" stroke-opacity="0.08"/>
  </g>

  <rect x="156" y="148" width="1288" height="904" rx="46" fill="#151718" stroke="white" stroke-opacity="0.1"/>
  <rect x="188" y="180" width="1224" height="840" rx="34" fill="#1A1D1E"/>
  <rect x="188" y="180" width="260" height="840" rx="34" fill="#242729"/>
  <path d="M448 180V1020" stroke="white" stroke-opacity="0.08"/>

  <circle cx="226" cy="220" r="8" fill="#F0645B"/>
  <circle cx="254" cy="220" r="8" fill="#EFB64C"/>
  <circle cx="282" cy="220" r="8" fill="#51BD73"/>
  <rect x="226" y="282" width="36" height="36" rx="12" fill="#F29A57"/>
  <path d="M237 300C237 292 241 288 247 288C253 288 257 292 257 300C257 308 253 312 247 312C241 312 237 308 237 300Z" fill="#242729"/>
  <path d="M241 299H253" stroke="#F29A57" stroke-width="3.2" stroke-linecap="round"/>
  <text x="278" y="312" fill="white" font-family="Inter, Arial, sans-serif" font-size="32" font-weight="700">Wbit</text>

  <rect x="226" y="384" width="184" height="54" rx="14" fill="white" fill-opacity="0.075" stroke="white" stroke-opacity="0.08"/>
  <rect x="250" y="404" width="18" height="18" rx="5" fill="#F29A57"/>
  <rect x="286" y="402" width="82" height="20" rx="10" fill="white" fill-opacity="0.58"/>
  <rect x="226" y="486" width="72" height="14" rx="7" fill="white" fill-opacity="0.28"/>
  <path d="M226 526H410" stroke="white" stroke-opacity="0.08"/>
  <rect x="226" y="568" width="168" height="18" rx="9" fill="white" fill-opacity="0.46"/>
  <rect x="226" y="624" width="126" height="16" rx="8" fill="white" fill-opacity="0.28"/>
  <rect x="226" y="680" width="152" height="16" rx="8" fill="white" fill-opacity="0.28"/>
  <rect x="226" y="736" width="136" height="16" rx="8" fill="white" fill-opacity="0.28"/>
  <rect x="226" y="792" width="164" height="16" rx="8" fill="white" fill-opacity="0.28"/>
  <rect x="226" y="888" width="36" height="36" rx="18" fill="#80D8FF"/>
  <rect x="278" y="894" width="92" height="14" rx="7" fill="white" fill-opacity="0.46"/>
  <rect x="278" y="918" width="62" height="12" rx="6" fill="white" fill-opacity="0.24"/>

  <g transform="translate(520 266)">
    <text x="0" y="0" fill="white" font-family="Noto Serif SC, Georgia, serif" font-size="50" font-weight="700">税务数字人工作台</text>
    <text x="0" y="54" fill="white" fill-opacity="0.48" font-family="Inter, Arial, sans-serif" font-size="24">企业风险扫描 · 政策匹配 · 专家咨询</text>
    <circle cx="8" cy="104" r="5" fill="#7ECF82"/>
    <text x="26" y="112" fill="white" fill-opacity="0.42" font-family="Inter, Arial, sans-serif" font-size="17">Working with enterprise context</text>
  </g>

  <g transform="translate(520 430)">
    <rect x="0" y="0" width="86" height="86" rx="43" fill="#FFF3E8"/>
    <circle cx="43" cy="34" r="19" fill="#5B4035"/>
    <path d="M22 70C28 54 58 54 64 70" fill="#F29A57" fill-opacity="0.72"/>
    <text x="0" y="126" fill="white" font-family="Inter, Arial, sans-serif" font-size="18" font-weight="700">税务</text>
    <rect x="-10" y="-10" width="106" height="150" rx="24" stroke="#F29A57" stroke-opacity="0.32"/>
  </g>
  <g transform="translate(672 430)" opacity="0.58">
    <circle cx="43" cy="43" r="43" fill="white" fill-opacity="0.08"/>
    <circle cx="43" cy="34" r="18" fill="#C7B8A7"/>
    <path d="M22 70C28 54 58 54 64 70" fill="#9FB0C0"/>
    <text x="0" y="126" fill="white" font-family="Inter, Arial, sans-serif" font-size="18">销售</text>
  </g>
  <g transform="translate(824 430)" opacity="0.46">
    <circle cx="43" cy="43" r="43" fill="white" fill-opacity="0.08"/>
    <circle cx="43" cy="34" r="18" fill="#C7B8A7"/>
    <path d="M22 70C28 54 58 54 64 70" fill="#9EA6B0"/>
    <text x="0" y="126" fill="white" font-family="Inter, Arial, sans-serif" font-size="18">老板</text>
  </g>
  <g transform="translate(976 430)" opacity="0.52">
    <circle cx="43" cy="43" r="43" fill="white" fill-opacity="0.08"/>
    <circle cx="43" cy="34" r="18" fill="#6B4136"/>
    <path d="M22 70C28 54 58 54 64 70" fill="#F0C7A7"/>
    <text x="0" y="126" fill="white" font-family="Inter, Arial, sans-serif" font-size="18">财务</text>
  </g>

  <g opacity="0.96">
    <rect x="520" y="632" width="270" height="130" rx="24" fill="#272A2B" stroke="white" stroke-opacity="0.1"/>
    <circle cx="568" cy="684" r="26" fill="#F29A57" fill-opacity="0.18"/>
    <path d="M560 684L568 676L576 684L568 692L560 684Z" fill="#F29A57"/>
    <text x="610" y="682" fill="white" font-family="Inter, Arial, sans-serif" font-size="24" font-weight="700">全面税务体检</text>
    <rect x="610" y="714" width="132" height="13" rx="6.5" fill="white" fill-opacity="0.22"/>
  </g>
  <g opacity="0.86">
    <rect x="822" y="632" width="270" height="130" rx="24" fill="#272A2B" stroke="white" stroke-opacity="0.1"/>
    <circle cx="870" cy="684" r="26" fill="#81C784" fill-opacity="0.16"/>
    <path d="M860 682L868 691L882 674" stroke="#81C784" stroke-width="7" stroke-linecap="round" stroke-linejoin="round"/>
    <text x="912" y="682" fill="white" font-family="Inter, Arial, sans-serif" font-size="24" font-weight="700">税务头条</text>
    <rect x="912" y="714" width="152" height="13" rx="6.5" fill="white" fill-opacity="0.18"/>
  </g>
  <g opacity="0.78">
    <rect x="1124" y="632" width="270" height="130" rx="24" fill="#272A2B" stroke="white" stroke-opacity="0.1"/>
    <circle cx="1172" cy="684" r="26" fill="#7792F0" fill-opacity="0.16"/>
    <rect x="1160" y="675" width="24" height="18" rx="4" fill="#7792F0"/>
    <text x="1214" y="682" fill="white" font-family="Inter, Arial, sans-serif" font-size="24" font-weight="700">政策匹配</text>
    <rect x="1214" y="714" width="122" height="13" rx="6.5" fill="white" fill-opacity="0.18"/>
  </g>

  <rect x="520" y="842" width="874" height="108" rx="30" fill="#26292A" stroke="white" stroke-opacity="0.12"/>
  <rect x="554" y="876" width="118" height="36" rx="18" fill="white" fill-opacity="0.08"/>
  <rect x="696" y="876" width="134" height="36" rx="18" fill="white" fill-opacity="0.08"/>
  <rect x="854" y="876" width="126" height="36" rx="18" fill="white" fill-opacity="0.08"/>
  <rect x="1004" y="876" width="138" height="36" rx="18" fill="white" fill-opacity="0.08"/>
  <rect x="1166" y="876" width="116" height="36" rx="18" fill="white" fill-opacity="0.08"/>
  <circle cx="1340" cy="896" r="24" fill="#E8E8E8"/>
  <path d="M1340 910V882" stroke="#26292A" stroke-width="5" stroke-linecap="round"/>
  <path d="M1329 893L1340 882L1351 893" stroke="#26292A" stroke-width="5" stroke-linecap="round" stroke-linejoin="round"/>

  <g transform="translate(1150 266)">
    <rect x="0" y="0" width="210" height="280" rx="42" fill="url(#avatarPanel)" stroke="white" stroke-opacity="0.08"/>
    <circle cx="105" cy="92" r="50" fill="#F1C3A7"/>
    <path d="M54 91C56 45 86 21 126 33C160 43 174 80 160 114C138 84 98 74 54 91Z" fill="#4A362F"/>
    <path d="M42 242C52 160 75 135 105 135C136 135 162 162 170 242H42Z" fill="#E9E4DC"/>
    <rect x="44" y="250" width="122" height="10" rx="5" fill="white" fill-opacity="0.18"/>
  </g>

  <text x="160" y="1118" fill="white" fill-opacity="0.32" font-family="Inter, Arial, sans-serif" font-size="18" letter-spacing="6">AI ASSISTANT PLATFORM</text>
  <text x="1092" y="1118" fill="#F29A57" fill-opacity="0.58" font-family="Inter, Arial, sans-serif" font-size="18" letter-spacing="6">WBIT PRODUCT DESIGN</text>

  <defs>
    <radialGradient id="pageGlow" cx="0" cy="0" r="1" gradientUnits="userSpaceOnUse" gradientTransform="translate(1230 250) rotate(126.819) scale(772 594)">
      <stop stop-color="#84664B" stop-opacity="0.46"/>
      <stop offset="0.55" stop-color="#2C2E2F" stop-opacity="0.36"/>
      <stop offset="1" stop-color="#080A0B" stop-opacity="0"/>
    </radialGradient>
    <linearGradient id="avatarPanel" x1="0" y1="0" x2="210" y2="280" gradientUnits="userSpaceOnUse">
      <stop stop-color="#39302A"/>
      <stop offset="1" stop-color="#202324"/>
    </linearGradient>
  </defs>
</svg>
